<svg width="531" height="512" viewBox="0 0 531 512" fill="none" xmlns="http://www.w3.org/2000/svg">
<circle cx="256" cy="256" r="245" stroke="#988345" stroke-width="22"/>
<path d="M258.2 361C238.6 361 221 356.2 205.4 346.6C190 337 177.9 324 169.1 307.6C160.5 291 156.2 272.8 156.2 253C156.2 234 160 216.8 167.6 201.4C175.2 185.8 186 173.5 200 164.5C214.2 155.5 230.6 151 249.2 151C266.4 151 281.2 153.3 293.6 157.9C306.2 162.3 315.4 168 321.2 175C324.4 179 326.4 184.3 327.2 190.9C328.2 197.5 328.7 205.7 328.7 215.5H322.7C318.9 197.9 311.7 184.8 301.1 176.2C290.5 167.4 276.2 163 258.2 163C242 163 228.5 167.3 217.7 175.9C206.9 184.3 198.9 195.3 193.7 208.9C188.7 222.5 186.2 237.2 186.2 253C186.2 286.8 192.8 311.3 206 326.5C219.2 341.5 236.6 349 258.2 349C268.4 349 277.1 348.1 284.3 346.3C291.5 344.5 298.3 341.9 304.7 338.5V286.3C304.7 279.5 305.8 273.6 308 268.6C310.2 263.6 314.9 259.5 322.1 256.3C329.5 252.9 340.2 251.2 354.2 251.2V257.2C345.2 257.2 339.2 259.5 336.2 264.1C333.2 268.7 331.7 275.9 331.7 285.7V342.1C320.9 348.7 309.6 353.5 297.8 356.5C286 359.5 272.8 361 258.2 361Z" fill="#988345"/>
<path d="M43.7891 271.402V254.996L121.523 214.957V232.438L59.9023 263.297L121.523 294.449V311.93L43.7891 271.402Z" fill="#988345"/>
<path d="M469.523 271.402L391.789 311.93V294.449L453.41 263.297L391.789 232.438V214.957L469.523 254.996V271.402Z" fill="#988345"/>
</svg>
